<?xml version="1.0" standalone="no"?><?xml-stylesheet type="text/css" href="https://www.processon.com/themes/default/mind/icons/icons.css" ?><!DOCTYPE svg PUBLIC "-//W3C//DTD SVG 1.1//EN" "http://www.w3.org/Graphics/SVG/1.1/DTD/svg11.dtd">
<svg xmlns="http://www.w3.org/2000/svg" version="1.1" xlink="http://www.w3.org/1999/xlink" id="mind-svg-con" width="945.5px" height="210px" style="position: absolute; left: 0px; top: 0px; width: 945.5px; height: 210px; background: rgb(255, 255, 255); z-index: 999;"><defs></defs><g id="svgbackgroundid"><defs></defs><rect x="0" y="0" width="945.5" height="210" fill="#ffffff"></rect></g><g transform="translate(-9527.25, -9882)" id="sdjakdjak7"><defs></defs><g class="svg-topic-con" transform="translate(0.5,0.5)"><path part="right" sub="true" id="line_643f63c2d290" d="M10000 9941 L10000 9995 L9611 9995 L9611 10018" stroke="#0D0B22" fill="none" stroke-width="2"></path><path part="right" sub="true" id="line_7f375e34b974" d="M10000 9941 L10000 9995 L9766 9995 L9766 10018" stroke="#0D0B22" fill="none" stroke-width="2"></path><path part="right" sub="true" id="line_d710e5fa89d2" d="M10000 9941 L10000 9995 L9922 9995 L9922 10018" stroke="#0D0B22" fill="none" stroke-width="2"></path><path part="right" sub="true" id="line_1df3c12cd8fd" d="M10000 9941 L10000 9995 L10077 9995 L10077 10018" stroke="#0D0B22" fill="none" stroke-width="2"></path><path part="right" sub="true" id="line_4beeab5efa01" d="M10000 9941 L10000 9995 L10233 9995 L10233 10018" stroke="#0D0B22" fill="none" stroke-width="2"></path><path part="right" sub="true" id="line_16f7660b7332" d="M10000 9941 L10000 9995 L10388 9995 L10388 10018" stroke="#0D0B22" fill="none" stroke-width="2"></path></g><g class="svg-connection-con" transform="translate(0.5,0.5)"></g><g class="svg-freesums-con" transform="translate(0.5,0.5)"></g><g class="svg-freebos-con" transform="translate(0.5,0.5)"></g></g><g id="16f7660b7332"><rect x="807.5" y="136" rx="7px" ry="7px" width="108" height="44" style="fill: #F3F3F4; stroke:none;"></rect><g><text text-anchor="start" align="top" anchor="start" font-size="16px" font-weight="normal" fill="rgb(13, 11, 34)" style="font-size:16px;font-family:微软雅黑;color:#0D0B22;font-style:normal;text-align:left;font-weight:normal;font-style: normal;"><tspan x="829.5" y="163.671875"><tspan>财务管理</tspan></tspan></text></g></g><g id="4beeab5efa01"><rect x="652" y="136" rx="7px" ry="7px" width="108" height="44" style="fill: #F3F3F4; stroke:none;"></rect><g><text text-anchor="start" align="top" anchor="start" font-size="16px" font-weight="normal" fill="rgb(13, 11, 34)" style="font-size:16px;font-family:微软雅黑;color:#0D0B22;font-style:normal;text-align:left;font-weight:normal;font-style: normal;"><tspan x="674" y="163.671875"><tspan>合作伙伴</tspan></tspan></text></g></g><g id="1df3c12cd8fd"><rect x="496.5" y="136" rx="7px" ry="7px" width="108" height="44" style="fill: #F3F3F4; stroke:none;"></rect><g><text text-anchor="start" align="top" anchor="start" font-size="16px" font-weight="normal" fill="rgb(13, 11, 34)" style="font-size:16px;font-family:微软雅黑;color:#0D0B22;font-style:normal;text-align:left;font-weight:normal;font-style: normal;"><tspan x="518.5" y="163.671875"><tspan>采购管理</tspan></tspan></text></g></g><g id="d710e5fa89d2"><rect x="341" y="136" rx="7px" ry="7px" width="108" height="44" style="fill: #F3F3F4; stroke:none;"></rect><g><text text-anchor="start" align="top" anchor="start" font-size="16px" font-weight="normal" fill="rgb(13, 11, 34)" style="font-size:16px;font-family:微软雅黑;color:#0D0B22;font-style:normal;text-align:left;font-weight:normal;font-style: normal;"><tspan x="363" y="163.671875"><tspan>制造管理</tspan></tspan></text></g></g><g id="7f375e34b974"><rect x="185.5" y="136" rx="7px" ry="7px" width="108" height="44" style="fill: #F3F3F4; stroke:none;"></rect><g><text text-anchor="start" align="top" anchor="start" font-size="16px" font-weight="normal" fill="rgb(13, 11, 34)" style="font-size:16px;font-family:微软雅黑;color:#0D0B22;font-style:normal;text-align:left;font-weight:normal;font-style: normal;"><tspan x="207.5" y="163.671875"><tspan>库存管理</tspan></tspan></text></g></g><g id="643f63c2d290"><rect x="30" y="136" rx="7px" ry="7px" width="108" height="44" style="fill: #F3F3F4; stroke:none;"></rect><g><text text-anchor="start" align="top" anchor="start" font-size="16px" font-weight="normal" fill="rgb(13, 11, 34)" style="font-size:16px;font-family:微软雅黑;color:#0D0B22;font-style:normal;text-align:left;font-weight:normal;font-style: normal;"><tspan x="52" y="163.671875"><tspan>销售管理</tspan></tspan></text></g></g><g transform="translate(807.5, 136)" id="sdjakdjak0"><g id="subline_16f7660b7332" transform="translate(0.5,-0.5)"></g><g transform="translate(0.5,0)"></g><g class="svg-summary-con" transform="translate(0.5,0.5)"></g><g class="svg-boundary-con" transform="translate(0.5,0.5)"></g></g><g transform="translate(652, 136)" id="sdjakdjak1"><g id="subline_4beeab5efa01" transform="translate(0.5,-0.5)"></g><g transform="translate(0.5,0)"></g><g class="svg-summary-con" transform="translate(0.5,0.5)"></g><g class="svg-boundary-con" transform="translate(0.5,0.5)"></g></g><g transform="translate(496.5, 136)" id="sdjakdjak2"><g id="subline_1df3c12cd8fd" transform="translate(0.5,-0.5)"></g><g transform="translate(0.5,0)"></g><g class="svg-summary-con" transform="translate(0.5,0.5)"></g><g class="svg-boundary-con" transform="translate(0.5,0.5)"></g></g><g transform="translate(341, 136)" id="sdjakdjak3"><g id="subline_d710e5fa89d2" transform="translate(0.5,-0.5)"></g><g transform="translate(0.5,0)"></g><g class="svg-summary-con" transform="translate(0.5,0.5)"></g><g class="svg-boundary-con" transform="translate(0.5,0.5)"></g></g><g transform="translate(185.5, 136)" id="sdjakdjak4"><g id="subline_7f375e34b974" transform="translate(0.5,-0.5)"></g><g transform="translate(0.5,0)"></g><g class="svg-summary-con" transform="translate(0.5,0.5)"></g><g class="svg-boundary-con" transform="translate(0.5,0.5)"></g></g><g transform="translate(30, 136)" id="sdjakdjak5"><g id="subline_643f63c2d290" transform="translate(0.5,-0.5)"></g><g transform="translate(0.5,0)"></g><g class="svg-summary-con" transform="translate(0.5,0.5)"></g><g class="svg-boundary-con" transform="translate(0.5,0.5)"></g></g><g transform="translate(385.75, 30)" id="sdjakdjak6"><g id="subline_root" transform="translate(0.5,-0.5)"></g><g transform="translate(0.5,0)"></g><g class="svg-summary-con" transform="translate(0.5,0.5)"></g><g class="svg-boundary-con" transform="translate(0.5,0.5)"></g></g><g id="root"><rect x="385.75" y="30" rx="7px" ry="7px" width="174" height="58" style="fill: rgb(13, 11, 34); stroke:none;"></rect><g><text text-anchor="start" align="top" anchor="start" font-size="18px" font-weight="normal" fill="rgb(255, 255, 255)" style="font-size:18px;font-family:微软雅黑;color:#fff;font-style:normal;text-align:left;font-weight:normal;font-style: normal;"><tspan x="425.75" y="63.140625"><tspan style="font-size: 24px;">ERP系统</tspan></tspan></text></g></g></svg>
